# xmcd
#
# Track frame offsets:
#	150
#	16477
#	37335
#
# Disc length: 715 seconds
#
# Revision: 1
# Processed by: cddbd v1.5.1PL2 Copyright (c) Steve Scherf et al.
# Submitted via: audiograbber 1.83.01
#
DISCID=2202c903
DTITLE=Mighty Sleepwalkers - Smile (Maxi)
DYEAR=1999
DGENRE=Pop
TTITLE0=Smile
TTITLE1=Radio
TTITLE2=Smile (Acoustic Version)
EXTD=www.themightysleepwalkers.de
EXTT0=
EXTT1=
EXTT2=
PLAYORDER=
